<svg width="16" height="16" viewBox="0 0 16 16" fill="none" xmlns="http://www.w3.org/2000/svg">
<path d="M10.1663 8.00032C10.1663 6.80381 9.19677 5.8335 8.00031 5.83333C6.80369 5.83333 5.83331 6.8037 5.83331 8.00032C5.83349 9.19679 6.8038 10.1663 8.00031 10.1663C9.19666 10.1662 10.1661 9.19668 10.1663 8.00032ZM11.1663 8.00032C11.1661 9.74896 9.74895 11.1662 8.00031 11.1663C6.25151 11.1663 4.83349 9.74907 4.83331 8.00032C4.83331 6.25142 6.2514 4.83333 8.00031 4.83333C9.74906 4.8335 11.1663 6.25153 11.1663 8.00032Z" fill="#1C2024"/>
<path d="M7.33496 14V13.333C7.33514 12.9659 7.63284 12.668 8 12.668C8.36716 12.668 8.66486 12.9659 8.66504 13.333V14C8.66504 14.3673 8.36727 14.665 8 14.665C7.63273 14.665 7.33496 14.3673 7.33496 14ZM3.75879 11.3008C4.01851 11.0414 4.43963 11.0412 4.69922 11.3008C4.95881 11.5604 4.95858 11.9815 4.69922 12.2412L4.22754 12.7129C3.96784 12.9726 3.5468 12.9726 3.28711 12.7129C3.02741 12.4532 3.02742 12.0322 3.28711 11.7725L3.75879 11.3008ZM11.3008 11.3008C11.5604 11.0412 11.9815 11.0414 12.2412 11.3008L12.7129 11.7725C12.9726 12.0322 12.9726 12.4532 12.7129 12.7129C12.4532 12.9726 12.0322 12.9726 11.7725 12.7129L11.3008 12.2412C11.0414 11.9815 11.0412 11.5604 11.3008 11.3008ZM2.66699 7.33496C3.03411 7.33514 3.33203 7.63284 3.33203 8C3.33203 8.36716 3.03411 8.66486 2.66699 8.66504H2C1.63273 8.66504 1.33496 8.36727 1.33496 8C1.33496 7.63273 1.63273 7.33496 2 7.33496H2.66699ZM14 7.33496C14.3673 7.33496 14.665 7.63273 14.665 8C14.665 8.36727 14.3673 8.66504 14 8.66504H13.333C12.9659 8.66486 12.668 8.36716 12.668 8C12.668 7.63284 12.9659 7.33514 13.333 7.33496H14ZM3.28711 3.28711C3.5468 3.02741 3.96784 3.02742 4.22754 3.28711L4.69922 3.75879C4.95858 4.01851 4.95881 4.43963 4.69922 4.69922C4.43963 4.95881 4.01851 4.95858 3.75879 4.69922L3.28711 4.22754C3.02742 3.96784 3.02741 3.5468 3.28711 3.28711ZM11.7725 3.28711C12.0322 3.02742 12.4532 3.02741 12.7129 3.28711C12.9726 3.5468 12.9726 3.96784 12.7129 4.22754L12.2412 4.69922C11.9815 4.95858 11.5604 4.95881 11.3008 4.69922C11.0412 4.43963 11.0414 4.01851 11.3008 3.75879L11.7725 3.28711ZM7.33496 2.66699V2C7.33496 1.63273 7.63273 1.33496 8 1.33496C8.36727 1.33496 8.66504 1.63273 8.66504 2V2.66699C8.66486 3.03411 8.36716 3.33203 8 3.33203C7.63284 3.33203 7.33514 3.03411 7.33496 2.66699Z" fill="#1C2024"/>
</svg>
